:SAMPLES-PER-SECOND 30
:FULLY-SPECIFIED
:DEGREES
297
root  39.5574 37.4926 4.22185 12.3885 83.3051 -5.53532
RightUpLeg  -48.2022 -10.983 0.926631
RightLeg  20.8449 3.88995 1.41909
RightFoot  9.92096 -0.126538 0.991971
RightToes  0.00048216 0.542163 -0.142577
Spine  59.8235 -6.28513 10.7422
Spine1  14.1495 2.80659 -8.05825
HEad  -36.9872 -9.35104 0.256957
LeftShoulder1  9.45617 -25.5761 -26.1863
LeftArm  -38.2534 -58.2832 -9.9755
LeftForeArm  15.9769 -1.98419 -2.1286
LeftHand  -0.25398 0.0180481 5.50724
RightShoulder  3.75048 15.222 13.0353
RightArm  -43.964 60.0513 1.03271
RightForeArm  -5.34486 -3.86388 3.96241
RightHand  -0.572657 0.93737 -10.6265
LeftUpLeg  -51.0705 21.0717 -14.3775
LeftLeg  26.2198 0.597046 0.657184
LeftFoot  4.30633 -1.46372 10.432
LeftToes  1.06246e-005 4.65856e-005 -8.18501e-006
298
root  40.0242 37.1381 4.78649 19.0133 85.2754 -1.90162
RightUpLeg  -53.3871 -12.3704 2.35064
RightLeg  26.3763 2.81158 1.27166
RightFoot  8.24147 0.194365 -0.794354
RightToes  0.00048216 0.542163 -0.142577
Spine  62.1858 -6.89925 11.0562
Spine1  12.3001 2.48763 -8.01366
HEad  -39.5313 -9.7513 1.14742
LeftShoulder1  9.30903 -26.637 -24.4629
LeftArm  -45.4903 -61.7784 -1.73056
LeftForeArm  14.2692 -1.62218 -1.82583
LeftHand  -0.25398 0.0180481 5.50724
RightShoulder  3.7537 16.1709 11.9764
RightArm  -50.4759 58.8104 -7.28547
RightForeArm  -6.90924 -3.83797 3.33551
RightHand  -0.58454 1.58279 -9.90407
LeftUpLeg  -55.2191 19.0209 -14.4694
LeftLeg  29.6388 0.305749 0.535803
LeftFoot  2.8701 -1.24569 9.82499
LeftToes  1.06246e-005 4.65856e-005 -8.18501e-006
299
root  40.512 36.8103 5.35262 26.5287 86.8125 2.68827
RightUpLeg  -58.168 -13.208 3.78832
RightLeg  31.0138 1.63579 0.827084
RightFoot  5.63368 0.299109 -1.74817
RightToes  0.00048216 0.542163 -0.142577
Spine  64.7377 -7.25155 11.0798
Spine1  10.236 2.32195 -8.01801
HEad  -41.8955 -9.83903 2.29981
LeftShoulder1  9.17978 -27.6243 -22.9756
LeftArm  -54.275 -64.1194 8.30235
LeftForeArm  11.485 -1.66545 -1.57773
LeftHand  -0.25398 0.0180481 5.50724
RightShoulder  3.80043 17.2588 11.107
RightArm  -56.6518 56.9291 -14.8161
RightForeArm  -9.57994 -3.89502 2.54983
RightHand  -0.519089 1.95997 -8.39431
LeftUpLeg  -59.2826 17.6293 -14.4463
LeftLeg  32.8591 0.0698541 0.406221
LeftFoot  1.51765 -1.00773 8.83838
LeftToes  1.06246e-005 4.65856e-005 -8.18501e-006
300
root  41.0048 36.5304 5.86626 25.554 87.7691 -0.862874
RightUpLeg  -62.2117 -13.8298 6.10662
RightLeg  34.4428 1.69429 0.9968
RightFoot  3.88017 0.501353 -3.55296
RightToes  0.00048216 0.542163 -0.142577
Spine  67.7595 -7.20496 11.0779
Spine1  7.67002 2.49348 -8.08041
HEad  -43.4572 -10.0142 3.54562
LeftShoulder1  8.9321 -28.4359 -21.3458
LeftArm  -62.8874 -65.3992 16.8036
LeftForeArm  8.74375 -2.51227 -1.0629
LeftHand  -0.25398 0.0180481 5.50724
RightShoulder  3.83126 18.2108 10.3654
RightArm  -60.783 54.5547 -20.2292
RightForeArm  -13.3922 -4.13132 1.8824
RightHand  -0.439555 2.33969 -6.84179
LeftUpLeg  -62.9439 17.1458 -14.0635
LeftLeg  35.7955 -0.210075 0.201345
LeftFoot  0.258268 -0.774438 7.59739
LeftToes  1.06246e-005 4.65856e-005 -8.18501e-006
301
root  41.4972 36.2662 6.31698 11.8284 88.2953 -17.0587
RightUpLeg  -65.7064 -14.5079 9.09827
RightLeg  37.1626 2.28117 1.58383
RightFoot  2.29352 0.661215 -5.38648
RightToes  0.00048216 0.542163 -0.142577
Spine  70.5908 -6.89227 10.9938
Spine1  5.20364 2.93573 -8.36162
HEad  -44.1602 -10.4603 4.54272
LeftShoulder1  8.44678 -29.0282 -19.2026
LeftArm  -70.3523 -66.0541 23.4859
LeftForeArm  6.70825 -3.52627 -0.448252
LeftHand  -0.25398 0.0180481 5.50724
RightShoulder  3.71683 18.7793 9.28764
RightArm  -63.0367 52.3233 -23.3802
RightForeArm  -17.4222 -4.79922 1.27961
RightHand  -0.443332 3.39448 -6.154
LeftUpLeg  -66.4389 17.3402 -13.7783
LeftLeg  38.4239 -0.770219 -0.281174
LeftFoot  -1.04769 -0.592341 6.6425
LeftToes  1.06246e-005 4.65856e-005 -8.18501e-006
302
root  41.9692 36.0288 6.69493 -5.94402 88.4487 -37.3541
RightUpLeg  -68.9523 -14.9771 11.9145
RightLeg  39.3796 2.73311 2.11977
RightFoot  0.582508 0.663574 -6.29799
RightToes  0.00048216 0.542163 -0.142577
Spine  72.6062 -6.5882 10.6517
Spine1  3.38492 3.29746 -9.06123
HEad  -44.5483 -10.8122 5.20844
LeftShoulder1  7.72279 -29.3454 -16.5601
LeftArm  -76.908 -65.9839 29.9778
LeftForeArm  4.63995 -3.9775 0.055296
LeftHand  -0.25398 0.0180481 5.50724
RightShoulder  3.45387 19.0502 7.76081
RightArm  -64.6905 50.5938 -25.0402
RightForeArm  -20.8973 -5.4631 0.607784
RightHand  -0.456128 4.9211 -5.51359
LeftUpLeg  -69.7529 17.72 -13.8223
LeftLeg  40.5282 -1.37007 -0.868593
LeftFoot  -2.41327 -0.454285 5.99976
LeftToes  1.06246e-005 4.65856e-005 -8.18501e-006
303
root  42.4055 35.8174 7.00546 -8.20578 88.4711 -42.2298
RightUpLeg  -72.356 -14.9589 13.9699
RightLeg  41.3711 2.85275 2.3934
RightFoot  -0.613274 0.665867 -7.12024
RightToes  0.00048216 0.542163 -0.142577
Spine  73.82 -6.27921 9.90944
Spine1  2.26369 3.27998 -9.88563
HEad  -45.0502 -10.6814 5.7085
LeftShoulder1  6.78308 -29.2546 -13.52
LeftArm  -82.164 -65.2478 35.1306
LeftForeArm  1.60371 -4.13678 0.664402
LeftHand  -0.25398 0.0180481 5.50724
RightShoulder  3.1948 19.2529 6.33224
RightArm  -65.9526 49.1233 -25.7962
RightForeArm  -23.4527 -5.10979 0.0894855
RightHand  -0.311808 6.16779 -3.54454
LeftUpLeg  -72.8115 17.7419 -14.1552
LeftLeg  42.0804 -1.63714 -1.18846
LeftFoot  -3.54609 -0.336122 5.24438
LeftToes  1.06246e-005 4.65856e-005 -8.18501e-006
304
root  42.8048 35.6353 7.26689 2.57135 88.6424 -33.753
RightUpLeg  -75.3893 -14.7382 15.3584
RightLeg  43.1411 2.58392 2.28295
RightFoot  -1.36026 0.721958 -8.35162
RightToes  0.00048216 0.542163 -0.142577
Spine  74.7193 -5.91312 9.00296
Spine1  1.38746 2.89684 -10.3135
HEad  -45.4433 -10.2432 6.00101
LeftShoulder1  5.73985 -28.6341 -10.4168
LeftArm  -85.8257 -64.519 37.2276
LeftForeArm  -2.0512 -4.61371 1.57151
LeftHand  -0.25398 0.0180481 5.50724
RightShoulder  3.016 19.3605 5.37824
RightArm  -66.5161 47.7665 -25.7224
RightForeArm  -25.012 -3.25737 -0.0154545
RightHand  -0.0485866 7.03103 -0.906081
LeftUpLeg  -75.239 17.3071 -14.3991
LeftLeg  43.2486 -1.58786 -1.1993
LeftFoot  -4.23624 -0.247757 4.40383
LeftToes  1.06246e-005 4.65856e-005 -8.18501e-006
305
root  43.1687 35.5092 7.46383 8.50086 88.7128 -29.5489
RightUpLeg  -77.3549 -14.4845 16.4797
RightLeg  44.3218 2.11371 1.89331
RightFoot  -2.17941 0.723218 -9.17622
RightToes  0.00048216 0.542163 -0.142577
Spine  75.6784 -5.57718 8.26157
Spine1  0.603721 2.56824 -10.5329
HEad  -45.8035 -9.70685 5.91285
LeftShoulder1  4.87591 -27.792 -7.91998
LeftArm  -88.3678 -64.0345 37.3761
LeftForeArm  -5.33567 -5.45729 2.51282
LeftHand  -0.25398 0.0180481 5.50724
RightShoulder  2.83169 18.97 4.71572
RightArm  -67.5502 46.9643 -24.9976
RightForeArm  -25.9942 -0.138314 0.0563917
RightHand  0.0929928 7.85644 0.344279
LeftUpLeg  -76.9373 16.9331 -14.3427
LeftLeg  44.1543 -1.42475 -1.07668
LeftFoot  -4.75378 -0.197074 3.92426
LeftToes  1.06246e-005 4.65856e-005 -8.18501e-006
306
root  43.4895 35.4457 7.58435 1.18296 88.5695 -38.3047
RightUpLeg  -78.6422 -14.1209 17.5772
RightLeg  44.9079 1.73711 1.53248
RightFoot  -2.83897 0.675777 -9.318
RightToes  0.00048216 0.542163 -0.142577
Spine  76.3615 -5.37257 7.77321
Spine1  0.394975 2.47513 -10.9019
HEad  -46.3617 -9.16748 5.44849
LeftShoulder1  4.37591 -27.1613 -6.47378
LeftArm  -90.5178 -63.4185 37.6871
LeftForeArm  -7.93303 -6.73349 3.1784
LeftHand  -0.25398 0.0180481 5.50724
RightShoulder  2.60778 17.892 4.26213
RightArm  -70.7979 47.0825 -24.0693
RightForeArm  -26.7618 3.95907 -0.0821423
RightHand  0.0559443 8.60331 -0.0303899
LeftUpLeg  -78.3158 16.9372 -14.3148
LeftLeg  44.7387 -1.29401 -0.965094
LeftFoot  -5.31786 -0.169265 3.82567
LeftToes  1.06246e-005 4.65856e-005 -8.18501e-006
307
root  43.7525 35.4132 7.6506 -3.47814 88.3762 -44.4432
RightUpLeg  -80.0463 -13.7166 18.5883
RightLeg  45.2819 1.52272 1.32169
RightFoot  -2.87563 0.680791 -9.42875
RightToes  0.00048216 0.542163 -0.142577
Spine  76.2823 -5.24921 7.36768
Spine1  1.10375 2.37395 -11.2231
HEad  -47.1274 -8.61551 4.8697
LeftShoulder1  4.13299 -26.51 -5.92514
LeftArm  -93.5944 -62.7338 38.4868
LeftForeArm  -9.29458 -9.24354 3.5434
LeftHand  -0.25398 0.0180481 5.50724
RightShoulder  2.43431 16.4717 4.27305
RightArm  -76.0945 47.7475 -23.2329
RightForeArm  -26.5382 9.03146 -0.127506
RightHand  0.0669701 8.88031 0.0440928
LeftUpLeg  -79.7533 17.0786 -14.7493
LeftLeg  44.9942 -1.27248 -0.952611
LeftFoot  -5.6596 -0.147428 3.65803
LeftToes  1.06246e-005 4.65856e-005 -8.18501e-006
308
root  43.9481 35.4037 7.68168 0.18166 88.3907 -42.0315
RightUpLeg  -81.3623 -13.6053 19.3675
RightLeg  45.5378 1.4136 1.21525
RightFoot  -2.63375 0.718019 -9.63256
RightToes  0.00048216 0.542163 -0.142577
Spine  75.7641 -5.1228 6.93229
Spine1  2.31038 2.09449 -11.0643
HEad  -47.7802 -8.12139 4.32511
LeftShoulder1  4.01334 -25.3691 -6.08823
LeftArm  -99.8567 -62.3919 38.9316
LeftForeArm  -6.64689 -13.4298 2.86966
LeftHand  -0.25398 0.0180481 5.50724
RightShoulder  2.36441 15.204 4.78882
RightArm  -82.2379 48.2629 -22.6621
RightForeArm  -23.5024 14.3485 0.873915
RightHand  0.298561 8.51987 2.00895
LeftUpLeg  -80.9744 17.1041 -15.5384
LeftLeg  45.0463 -1.37233 -1.062
LeftFoot  -5.51175 -0.135152 3.30826
LeftToes  1.06246e-005 4.65856e-005 -8.18501e-006
